<?xml version="1.0" encoding="UTF-8" standalone="no"?>
<svg
   xmlns:dc="http://purl.org/dc/elements/1.1/"
   xmlns:cc="http://creativecommons.org/ns#"
   xmlns:rdf="http://www.w3.org/1999/02/22-rdf-syntax-ns#"
   xmlns:svg="http://www.w3.org/2000/svg"
   xmlns="http://www.w3.org/2000/svg"
   xmlns:sodipodi="http://sodipodi.sourceforge.net/DTD/sodipodi-0.dtd"
   xmlns:inkscape="http://www.inkscape.org/namespaces/inkscape"
   version="1.1"
   id="svg2"
   viewBox="0 0 295.91819 76.059555"
   height="76.059555"
   width="295.91818"
   inkscape:version="0.91 r13725"
   sodipodi:docname="right-crowd.svg">
  <sodipodi:namedview
     pagecolor="#ffffff"
     bordercolor="#666666"
     borderopacity="1"
     objecttolerance="10"
     gridtolerance="10"
     guidetolerance="10"
     inkscape:pageopacity="0"
     inkscape:pageshadow="2"
     inkscape:window-width="1618"
     inkscape:window-height="1027"
     id="namedview76"
     showgrid="false"
     inkscape:zoom="2.1566757"
     inkscape:cx="141.29928"
     inkscape:cy="46.238424"
     inkscape:window-x="54"
     inkscape:window-y="-8"
     inkscape:window-maximized="1"
     inkscape:current-layer="svg2"
     fit-margin-top="4"
     fit-margin-left="4"
     fit-margin-right="4"
     fit-margin-bottom="4" />
  <defs
     id="defs4" />
  <metadata
     id="metadata7">
    <rdf:RDF>
      <cc:Work
         rdf:about="">
        <dc:format>image/svg+xml</dc:format>
        <dc:type
           rdf:resource="http://purl.org/dc/dcmitype/StillImage" />
        <dc:title></dc:title>
      </cc:Work>
    </rdf:RDF>
  </metadata>
  <path
     style="fill:#606060;fill-opacity:1"
     d="M 107.26645,4.0287025 C 93.196689,3.5485431 79.696909,15.651097 79.58676,29.763077 c -7.303845,2.758028 -6.566473,13.676654 0.0332,16.804688 1.753189,6.976214 8.406541,11.291167 14.076172,14.728515 2.948595,9.561935 15.809798,14.310021 23.722658,7.675782 2.96149,-2.038907 4.47461,-5.58714 6.23438,-8.373047 6.08407,-2.82475 11.71742,-7.812825 13.54687,-14.302735 6.8751,-2.731105 6.62452,-13.847287 0.0449,-16.6875 C 136.55272,17.036019 126.5416,5.9234151 113.9266,4.4310462 111.72843,4.0642477 109.49257,3.9367869 107.26645,4.0287025 Z"
     id="path5073"
     inkscape:connector-curvature="0" />
  <path
     style="fill:#606060;fill-opacity:1"
     d="m 254.3309,4.0792796 c -14.42197,0.2828861 -29.07939,11.3598054 -29.52344,26.4824224 0.26715,3.951271 0.78665,7.837073 -0.9082,11.486328 -1.13267,3.490915 2.91968,6.322171 0.71875,9.478516 -2.64825,7.560276 0.29593,17.637103 8.7793,19.697265 4.25003,1.678676 9.65061,0.673062 12.54101,-2.851562 7.75971,2.549687 16.21823,1.789116 24.02149,0.158203 7.36038,8.110397 22.54986,0.56495 21.83008,-10.052735 0.72593,-3.509332 -1.89569,-7.274631 -1.23047,-10.33789 3.02313,-4.600517 -1.23584,-9.571507 0.38281,-14.392578 C 291.78194,19.49331 280.28715,6.3782067 266.2059,4.7667796 c -3.9138,-0.7370303 -7.90723,-0.7811614 -11.875,-0.6875 z"
     id="path5071"
     inkscape:connector-curvature="0" />
  <path
     style="fill:#606060;fill-opacity:1"
     d="M 34.860197,4.2509751 C 19.309593,3.6090949 5.2097341,16.735719 4.2781656,32.192381 2.2089973,47.315505 11.924428,61.925179 25.407072,68.221678 c 5.258252,3.310096 11.953779,5.37704 17.539063,1.527343 C 57.082547,63.735435 69.042515,49.43827 67.08676,33.352537 66.531628,18.202738 53.673347,4.4138376 38.229338,4.327147 37.108049,4.2537439 35.983704,4.2269119 34.860197,4.2509751 Z"
     id="path5069"
     inkscape:connector-curvature="0" />
  <g
     id="g3638"
     transform="translate(3.6389316,6.0297784)">
    <path
       id="path3612"
       d="M 59.5,30.6 C 59.5,54.1 32,62 32,62 32,62 4.5,54.1 4.5,30.6 4.5,13.1 15.5,2 32,2 48.5,2 59.5,13.1 59.5,30.6 Z"
       inkscape:connector-curvature="0"
       style="fill:#c7e755" />
    <g
       id="g3614"
       style="fill:#454749">
      <path
         id="path3616"
         d="m 23.4,26.4 c 4,3.8 5.1,8.9 2.6,11.4 -2.5,2.4 -7.8,1.3 -11.7,-2.5 -4,-3.8 -5.1,-8.9 -2.6,-11.4 2.5,-2.5 7.7,-1.4 11.7,2.5"
         inkscape:connector-curvature="0" />
      <path
         id="path3618"
         d="M 26.4,30.6 C 23.8,28.3 21.2,26.5 18.4,24.9 17,24.1 15.5,23.4 14,22.8 12.5,22.2 10.9,21.6 9.3,21 c 1.7,-0.2 3.5,-0.1 5.2,0.3 1.7,0.4 3.4,1 4.9,1.8 1.5,0.8 2.9,1.9 4.2,3.2 1.1,1.2 2.2,2.6 2.8,4.3"
         inkscape:connector-curvature="0" />
    </g>
    <path
       id="path3620"
       d="m 20.4,25 c 2,1.2 3.1,3.1 2.5,4.1 -0.7,1 -2.9,0.8 -4.9,-0.4 -2,-1.2 -3.1,-3.1 -2.5,-4.1 0.7,-1 2.8,-0.8 4.9,0.4"
       inkscape:connector-curvature="0"
       style="fill:#ffffff" />
    <g
       id="g3622"
       style="fill:#454749">
      <path
         id="path3624"
         d="m 40.6,26.4 c -4,3.8 -5.1,8.9 -2.6,11.4 2.5,2.4 7.8,1.3 11.7,-2.5 4,-3.8 5.1,-8.9 2.6,-11.4 -2.5,-2.5 -7.7,-1.4 -11.7,2.5"
         inkscape:connector-curvature="0" />
      <path
         id="path3626"
         d="m 37.6,30.6 c 0.6,-1.6 1.7,-3 2.9,-4.3 1.2,-1.2 2.6,-2.3 4.2,-3.2 1.5,-0.9 3.2,-1.5 4.9,-1.8 1.7,-0.4 3.4,-0.5 5.2,-0.3 -1.6,0.6 -3.2,1.1 -4.7,1.8 -1.5,0.6 -3,1.3 -4.4,2.1 -2.9,1.5 -5.5,3.4 -8.1,5.7"
         inkscape:connector-curvature="0" />
    </g>
    <path
       id="path3628"
       d="m 43.6,25 c -2,1.2 -3.1,3.1 -2.5,4.1 0.7,1 2.9,0.8 4.9,-0.4 2,-1.2 3.1,-3.1 2.5,-4.1 -0.7,-1 -2.8,-0.8 -4.9,0.4"
       inkscape:connector-curvature="0"
       style="fill:#ffffff" />
    <path
       id="path3630"
       stroke-miterlimit="10"
       d="m 32,48.6 c -7.6,0 -10.7,-3.7 -10.7,-2.4 0,1.9 4.8,4.4 10.7,4.4 5.9,0 10.7,-2.5 10.7,-4.4 0,-1.3 -3.1,2.4 -10.7,2.4 z"
       inkscape:connector-curvature="0"
       style="fill:#454749;stroke:#454749;stroke-miterlimit:10" />
  </g>
  <path
     style="color:#000000;clip-rule:nonzero;display:inline;overflow:visible;visibility:visible;opacity:1;isolation:auto;mix-blend-mode:normal;color-interpolation:sRGB;color-interpolation-filters:linearRGB;solid-color:#000000;solid-opacity:1;fill:#606060;fill-opacity:1;fill-rule:nonzero;stroke-width:1;stroke-linecap:butt;stroke-linejoin:miter;stroke-miterlimit:4;stroke-dasharray:none;stroke-dashoffset:0;stroke-opacity:1;color-rendering:auto;image-rendering:auto;shape-rendering:auto;text-rendering:auto;enable-background:accumulate"
     d="m 178.93359,4.087894 c -14.85428,-0.127407 -29.51045,11.978828 -29.58789,27.345703 -1.38347,10.954954 -4.23455,24.468141 3.92774,33.525391 7.80054,6.478141 18.69344,5.674732 28.15234,7.013671 8.29037,-1.532177 16.97651,-1.718874 24.96875,-4.666015 9.45044,-3.967066 9.26515,-16.35263 7.98609,-24.948401 C 212.81015,31.369995 213.32187,16.837408 201.93555,10.7793 195.9705,9.236836 191.5294,4.2755302 185.09375,4.2734409 183.04639,4.0758805 180.98757,4.1074865 178.93359,4.087894 Z"
     id="path5152"
     inkscape:connector-curvature="0" />
  <g
     id="g5126"
     transform="translate(0,-1.5133416)">
    <path
       id="path3563"
       d="m 181.06584,9.54312 c -18.1,0 -28,11.4 -28,26.5 0,0 -5.11892,24.531036 5.08197,29.07377 13.19932,5.878018 33.29247,3.703857 46.4918,0.163935 10.78553,-2.892565 4.42623,-29.237705 4.42623,-29.237705 0,-22.4 -15.2,-22 -15.2,-22 0,0 -1.1,-4.5 -12.8,-4.5 z"
       inkscape:connector-curvature="0"
       style="fill:#dbb471"
       sodipodi:nodetypes="ssssscs" />
    <path
       id="path3565"
       d="m 159.46584,48.24312 c 0,0 -4.4,-1.1 -4.4,-7.5 0,-5.1 3.3,-5.9 3.3,-5.9 11.8,-0.1 33.7,-15.3 33.7,-15.3 0,0 4.6,13.4 11.6,15.2 0,0 3.4,0.6 3.4,5.9 0,6.4 -4.5,7.5 -4.5,7.5 -0.1,9.7 -13.4,21.4 -21.5,21.4 -8.1,0 -21.6,-11.7 -21.6,-21.3 z"
       inkscape:connector-curvature="0"
       style="fill:#fed0ac" />
    <path
       id="path3567"
       d="m 181.06584,54.54312 c -4.2,0 -6.3,-3 -4.2,-3 2.1,0 6.3,0 8.4,0 2.1,0 0,3 -4.2,3"
       inkscape:connector-curvature="0"
       style="fill:#e0a372" />
    <path
       id="path3569"
       d="m 187.36584,45.74312 c -1.5,0 -1.3,-1.8 -1.3,-1.8 2.2,-11.5 15,-5.4 15,-5.4 1,2 -2.3,6.9 -3.2,7.2 -4.2,1 -10.5,0 -10.5,0"
       inkscape:connector-curvature="0"
       style="fill:#f5f5f5" />
    <path
       id="path3571"
       d="m 197.56584,41.04312 c 0,2.5 -2,4.5 -4.5,4.5 -2.5,0 -4.5,-2 -4.5,-4.5 0,-2.5 2,-4.5 4.5,-4.5 2.5,0 4.5,2 4.5,4.5"
       inkscape:connector-curvature="0"
       style="fill:#664e27" />
    <circle
       id="circle3573"
       r="1.5"
       cy="41.043121"
       cx="193.06584"
       style="fill:#2b2925" />
    <path
       id="path3575"
       d="m 186.06584,43.84312 c 2.2,-13.7 13.5,-4.6 18,-6.5 -4.5,4.3 -13.5,-4.9 -18,6.5"
       inkscape:connector-curvature="0"
       style="fill:#3b3226" />
    <path
       id="path3577"
       d="m 174.76584,45.74312 c 1.5,0 1.3,-1.8 1.3,-1.8 -2.2,-11.5 -15,-5.4 -15,-5.4 -1,2 2.3,6.9 3.2,7.2 4.2,1 10.5,0 10.5,0"
       inkscape:connector-curvature="0"
       style="fill:#f5f5f5" />
    <path
       id="path3579"
       d="m 164.56584,41.04312 c 0,2.5 2,4.5 4.5,4.5 2.5,0 4.5,-2 4.5,-4.5 0,-2.5 -2,-4.5 -4.5,-4.5 -2.5,0 -4.5,2 -4.5,4.5"
       inkscape:connector-curvature="0"
       style="fill:#664e27" />
    <path
       id="path3581"
       d="m 176.06584,43.84312 c -2.2,-13.7 -13.5,-4.6 -18,-6.5 4.5,4.3 13.5,-4.9 18,6.5"
       inkscape:connector-curvature="0"
       style="fill:#3b3226" />
    <path
       id="path3583"
       d="m 181.06584,59.54312 -10,-1.5 c 6,8.5 14,8.5 20,0 l -10,1.5 z"
       inkscape:connector-curvature="0"
       style="fill:#e08672" />
    <path
       id="path3585"
       d="m 184.96584,57.64312 c -2.9,-1.1 -3.9,0.7 -3.9,0.7 0,0 -1,-1.8 -3.9,-0.7 -2.3,0.9 -6.1,0.4 -6.1,0.4 4,0.9 4.5,2.5 10,2.5 5.5,0 6,-1.7 10,-2.5 0,0 -3.8,0.5 -6.1,-0.4"
       inkscape:connector-curvature="0"
       style="fill:#b86e5d" />
    <circle
       id="circle3587"
       r="1.5"
       cy="41.043121"
       cx="169.06584"
       style="fill:#2b2925" />
  </g>
  <g
     id="g3548"
     transform="translate(225.84201,6.0443869)">
    <path
       id="path3520"
       d="M 57.9,40 C 57.9,40 61,34.4 61,26 61,15 52.9,2 32,2 11.1,2 3,15 3,26 3,34.4 6.1,40 6.1,40 2.5,44.1 0.3,52.4 3.4,57.8 4.7,60 17.5,67.8 18.7,53.9 l 26.4,0 c 1.3,13.8 14.1,6.1 15.3,3.9 3.2,-5.4 1,-13.7 -2.5,-17.8"
       inkscape:connector-curvature="0"
       style="fill:#231f20" />
    <path
       id="path3522"
       d="M 32,6 C 16.7,6 5.5,14 5.5,24 5.5,24 9.6,9 32,9 54.4,9 57.5,24 57.5,24 57.5,14 47.3,6 32,6 Z"
       inkscape:connector-curvature="0"
       style="fill:#c28fef" />
    <path
       id="path3524"
       d="m 57.3,42 c 6.2,0 6.2,-9 0,-9 l 0,-3 c 0,0 -35,-0.9 -43,-13 2,12.2 -7.7,16 -7.7,16 -6.2,0 -6.2,9 0,9 0,7 7.3,18 25.3,18 C 50,60 57.3,49 57.3,42"
       inkscape:connector-curvature="0"
       style="fill:#8a6859" />
    <g
       id="g3526"
       style="fill:#ffffff">
      <circle
         id="circle3528"
         r="6.5"
         cy="36.5"
         cx="44.5" />
      <circle
         id="circle3530"
         r="6.5"
         cy="36.5"
         cx="19.5" />
    </g>
    <circle
       id="circle3532"
       r="4.5"
       cy="36.5"
       cx="44.5"
       style="fill:#664e27" />
    <circle
       id="circle3534"
       r="1.5"
       cy="36.5"
       cx="44.5"
       style="fill:#231f20" />
    <circle
       id="circle3536"
       r="4.5"
       cy="36.5"
       cx="19.5"
       style="fill:#664e27" />
    <circle
       id="circle3538"
       r="1.5"
       cy="36.5"
       cx="19.5"
       style="fill:#231f20" />
    <path
       id="path3540"
       d="m 40.1,48.1 c -5.2,3.6 -11,3.6 -16.2,0 -0.6,-0.4 -1.2,0.3 -0.8,1 1.6,2.6 4.8,4.9 8.9,4.9 4.1,0 7.3,-2.3 8.9,-4.9 0.4,-0.7 -0.2,-1.4 -0.8,-1"
       inkscape:connector-curvature="0"
       style="fill:#574137" />
  </g>
  <g
     id="g3889"
     transform="translate(76.352412,6.0297784)">
    <path
       id="path3851"
       d="M 57,27 C 57,10 45,2 32,2 19,2 7,10 7,27 c -3.5,0 -5,2.5 -5,5 0,2.5 1.5,5 5,5 0,6.7 7,16 25,16 18,0 25,-9.3 25,-16 3.5,0 5,-2.5 5,-5 0,-2.5 -1.5,-5 -5,-5"
       inkscape:connector-curvature="0"
       style="fill:#fed0ac" />
    <path
       id="path3853"
       d="m 33,15 c -4,-3 -2,-7 -2,-7 0,0 8,5 15,3 0,0 -4,-1 -5,-4 0,0 4,1 7,0 C 44,4 39,2 32,2 25,2 20,4 16,7 c 4,5 8,8 17,8"
       inkscape:connector-curvature="0"
       style="fill:#dbb471" />
    <g
       id="g3855"
       style="fill:#ff717f">
      <path
         id="path3857"
         d="m 56,37.4 c -0.4,-2.4 -3.3,-3.9 -6.6,-3.2 -3.3,0.6 -5.7,3.1 -5.3,5.5 0.4,2.4 3.3,3.9 6.6,3.2 3.2,-0.7 5.6,-3.1 5.3,-5.5"
         inkscape:connector-curvature="0"
         style="opacity:0.5" />
      <path
         id="path3859"
         d="M 14.6,34.1 C 11.4,33.5 8.4,35 8,37.4 c -0.4,2.4 2,4.9 5.3,5.5 3.3,0.6 6.3,-0.8 6.6,-3.2 0.4,-2.5 -2,-4.9 -5.3,-5.6"
         inkscape:connector-curvature="0"
         style="opacity:0.5" />
    </g>
    <path
       id="path3861"
       d="M 26,27.5 C 26,31.1 23.1,34 19.5,34 15.9,34 13,31.1 13,27.5 13,23.9 15.9,21 19.5,21 c 3.6,0 6.5,2.9 6.5,6.5"
       inkscape:connector-curvature="0"
       style="fill:#ffffff" />
    <circle
       id="circle3863"
       r="4.5"
       cy="27.5"
       cx="19.5"
       style="fill:#664e27" />
    <path
       id="path3865"
       d="M 21,27.5 C 21,28.3 20.3,29 19.5,29 18.7,29 18,28.3 18,27.5 18,26.7 18.7,26 19.5,26 c 0.8,0 1.5,0.7 1.5,1.5"
       inkscape:connector-curvature="0"
       style="fill:#231f20" />
    <path
       id="path3867"
       d="M 51,27.5 C 51,31.1 48.1,34 44.5,34 40.9,34 38,31.1 38,27.5 38,23.9 40.9,21 44.5,21 c 3.6,0 6.5,2.9 6.5,6.5"
       inkscape:connector-curvature="0"
       style="fill:#ffffff" />
    <circle
       id="circle3869"
       r="4.5"
       cy="27.5"
       cx="44.5"
       style="fill:#664e27" />
    <circle
       id="circle3871"
       r="1.5"
       cy="27.5"
       cx="44.5"
       style="fill:#231f20" />
    <path
       id="path3873"
       d="M 47,43.8 C 47,52.1 40.3,56 32,56 23.7,56 17,52.1 17,43.8 17,35.4 23.8,39 32,39 c 8.3,0 15,-3.6 15,4.8"
       inkscape:connector-curvature="0"
       style="fill:#61c2ff" />
    <ellipse
       id="ellipse3875"
       ry="5"
       rx="6"
       cy="47"
       cx="32"
       style="fill:#6235a8" />
    <path
       id="path3877"
       d="m 32,46 c -6.1,0 -11,-0.7 -11,5.2 0,6 4.9,10.8 11,10.8 6.1,0 11,-4.8 11,-10.7 0,-6 -4.9,-5.3 -11,-5.3 m 0,12.4 c -4.3,0 -8.3,-2.9 -8.3,-7.1 0,-4.2 4,-3.2 8.3,-3.2 4.3,0 8.3,-1 8.3,3.2 0,4.2 -4,7.1 -8.3,7.1"
       inkscape:connector-curvature="0"
       style="fill:#fbbf67" />
    <path
       id="path3879"
       d="m 36,48.8 c 0,0.6 -0.5,1.2 -1.1,1.2 l -5.8,0 C 28.5,50 28,49.5 28,48.8 l 0,-2.7 c 0,-0.6 0.5,-1.2 1.1,-1.2 l 5.8,0 c 0.6,0 1.1,0.5 1.1,1.2 l 0,2.7"
       inkscape:connector-curvature="0"
       style="fill:#42ade2" />
    <path
       id="path3881"
       d="m 32,38 c -4.2,0 -6.3,-3 -4.2,-3 2.1,0 6.3,0 8.4,0 2.1,0 0,3 -4.2,3"
       inkscape:connector-curvature="0"
       style="fill:#e0a372" />
  </g>
</svg>
