<?xml version="1.0" encoding="UTF-8" standalone="no"?>
<svg
   xmlns:dc="http://purl.org/dc/elements/1.1/"
   xmlns:cc="http://creativecommons.org/ns#"
   xmlns:rdf="http://www.w3.org/1999/02/22-rdf-syntax-ns#"
   xmlns:svg="http://www.w3.org/2000/svg"
   xmlns="http://www.w3.org/2000/svg"
   xmlns:sodipodi="http://sodipodi.sourceforge.net/DTD/sodipodi-0.dtd"
   xmlns:inkscape="http://www.inkscape.org/namespaces/inkscape"
   width="308.19012"
   height="81.64534"
   viewBox="0 0 308.19013 81.645341"
   id="svg2"
   version="1.1"
   inkscape:version="0.91 r13725"
   sodipodi:docname="left-crowd.svg">
  <sodipodi:namedview
     pagecolor="#ffffff"
     bordercolor="#666666"
     borderopacity="1"
     objecttolerance="10"
     gridtolerance="10"
     guidetolerance="10"
     inkscape:pageopacity="0"
     inkscape:pageshadow="2"
     inkscape:window-width="1618"
     inkscape:window-height="1027"
     id="namedview3408"
     showgrid="false"
     inkscape:zoom="2.3974579"
     inkscape:cx="133.17055"
     inkscape:cy="44.707505"
     inkscape:window-x="54"
     inkscape:window-y="-8"
     inkscape:window-maximized="1"
     inkscape:current-layer="svg2"
     fit-margin-left="4"
     fit-margin-top="4"
     fit-margin-right="4"
     fit-margin-bottom="4" />
  <defs
     id="defs4" />
  <metadata
     id="metadata7">
    <rdf:RDF>
      <cc:Work
         rdf:about="">
        <dc:format>image/svg+xml</dc:format>
        <dc:type
           rdf:resource="http://purl.org/dc/dcmitype/StillImage" />
        <dc:title></dc:title>
      </cc:Work>
    </rdf:RDF>
  </metadata>
  <path
     style="color:#000000;clip-rule:nonzero;display:inline;overflow:visible;visibility:visible;opacity:1;isolation:auto;mix-blend-mode:normal;color-interpolation:sRGB;color-interpolation-filters:linearRGB;solid-color:#000000;solid-opacity:1;fill:#606060;fill-opacity:1;fill-rule:nonzero;stroke:none;stroke-width:1;stroke-linecap:butt;stroke-linejoin:miter;stroke-miterlimit:4;stroke-dasharray:none;stroke-dashoffset:0;stroke-opacity:1;marker:none;color-rendering:auto;image-rendering:auto;shape-rendering:auto;text-rendering:auto;enable-background:accumulate"
     d="m 193.40039,4.0173886 c -10.50812,0.4772552 -22.98054,2.9671011 -28.37695,13.0800784 -4.92959,0.946161 -6.80202,6.611707 -4.94336,10.876953 -3.43915,4.590386 -1.20149,11.162263 2.39844,14.63086 -3.86592,9.366582 -5.78834,22.539427 2.75,29.876953 12.66904,7.252154 28.09959,5.06082 41.98684,4.039595 7.40985,-0.544915 15.79878,-4.201538 16.90964,-12.439986 1.97189,-6.567269 0.37658,-13.775807 -2.08398,-19.734375 C 229.37704,30.279488 222.3787,9.914842 206.39453,5.7595761 202.21499,4.393724 197.78504,3.896994 193.40039,4.0173886 Z"
     id="path4315"
     inkscape:connector-curvature="0" />
  <g
     id="g4290"
     transform="translate(0,0.00691401)">
    <path
       sodipodi:nodetypes="ccssc"
       inkscape:connector-curvature="0"
       id="rect4220"
       d="m 169.55459,38.063358 43.79639,0.521386 c 7.40653,10.094814 10.40304,18.803603 4.79675,29.614702 -3.19661,6.164287 -44.49724,8.204079 -51.82573,0.104277 -5.14098,-5.682064 -3.54806,-21.319978 3.23259,-30.240365 z"
       style="color:#000000;clip-rule:nonzero;display:inline;overflow:visible;visibility:visible;opacity:1;isolation:auto;mix-blend-mode:normal;color-interpolation:sRGB;color-interpolation-filters:linearRGB;solid-color:#000000;solid-opacity:1;fill:#ff4848;fill-opacity:1;fill-rule:nonzero;stroke:none;stroke-width:1;stroke-linecap:butt;stroke-linejoin:miter;stroke-miterlimit:4;stroke-dasharray:none;stroke-dashoffset:0;stroke-opacity:1;marker:none;color-rendering:auto;image-rendering:auto;shape-rendering:auto;text-rendering:auto;enable-background:accumulate" />
    <path
       style="fill:#ffdd67"
       d="m 172.52465,30.500991 c 2.6,2.7 2.9,6.7 0.7,9 -2.2,2.3 -6.1,1.9 -8.7,-0.8 -2.6,-2.7 -2.9,-6.7 -0.7,-9 2.2,-2.2 6.1,-1.9 8.7,0.8"
       id="path3349"
       inkscape:connector-curvature="0" />
    <path
       style="fill:#ffdd67"
       d="m 213.62465,26.100991 c 0,13.6 -2.5,24.6 -22.2,24.6 -19.7,0 -22.2,-11.1 -22.2,-24.6 0,-4.4 44.4,-4.4 44.4,0"
       id="path3353"
       inkscape:connector-curvature="0" />
    <path
       style="fill:#ffffff"
       d="m 185.62465,32.200991 c 0,3.4 -2.7,6.2 -6,6.2 -3.3,0 -6,-2.8 -6,-6.2 0,-3.4 2.7,-6.2 6,-6.2 3.3,0 6,2.8 6,6.2"
       id="path3355"
       inkscape:connector-curvature="0" />
    <path
       style="fill:#0a84a5"
       d="m 184.12465,32.200991 c 0,2.6 -2,4.6 -4.5,4.6 -2.5,0 -4.5,-2.1 -4.5,-4.6 0,-2.6 2,-4.6 4.5,-4.6 2.5,-0.1 4.5,2 4.5,4.6"
       id="path3357"
       inkscape:connector-curvature="0" />
    <path
       style="fill:#231f20"
       d="m 181.12465,32.200991 c 0,0.9 -0.7,1.5 -1.5,1.5 -0.8,0 -1.5,-0.7 -1.5,-1.5 0,-0.9 0.7,-1.6 1.5,-1.6 0.8,0 1.5,0.7 1.5,1.6"
       id="path3359"
       inkscape:connector-curvature="0" />
    <ellipse
       style="fill:#ffffff"
       cx="203.22466"
       cy="32.200993"
       rx="6"
       ry="6.1999998"
       id="ellipse3361" />
    <path
       style="fill:#0a84a5"
       d="m 207.72465,32.200991 c 0,2.6 -2,4.6 -4.5,4.6 -2.5,0 -4.5,-2.1 -4.5,-4.6 0,-2.6 2,-4.6 4.5,-4.6 2.5,0 4.5,2 4.5,4.6"
       id="path3363"
       inkscape:connector-curvature="0" />
    <path
       style="fill:#231f20"
       d="m 204.72465,32.200991 c 0,0.9 -0.7,1.5 -1.5,1.5 -0.8,0 -1.5,-0.7 -1.5,-1.5 0,-0.9 0.7,-1.6 1.5,-1.6 0.8,0 1.5,0.7 1.5,1.6"
       id="path3365"
       inkscape:connector-curvature="0" />
    <path
       style="fill:#e2e9ed"
       d="m 216.72465,47.200991 c 0,18.3 -11,21.7 -24.5,21.7 -13.6,0 -24.5,-3.4 -24.5,-21.7 0,-10.3 11,-10.7 24.5,-10.7 13.5,0 24.5,0.4 24.5,10.7"
       id="path3367"
       inkscape:connector-curvature="0" />
    <ellipse
       style="fill:#664e27"
       cx="191.42465"
       cy="43.800991"
       rx="3.5"
       ry="3.5999999"
       id="ellipse3369" />
    <g
       transform="translate(159.42465,7.000991)"
       style="fill:#ffffff"
       id="g3371">
      <path
         d="m 49.3,22.7 c -3,-0.2 6.1,7.4 -8.2,6.3 -5,-0.4 -9.2,3.3 -9.2,6.5 0,3.9 4.1,6.9 10.3,6.9 7.3,0 12.6,-4.5 13.7,-10.9 0.5,-2.7 -1.6,-8.3 -6.6,-8.8"
         id="path3373"
         inkscape:connector-curvature="0" />
      <path
         d="m 22.8,29.1 c -14.2,1.1 -5.2,-6.6 -8.2,-6.3 -5,0.4 -7.1,6 -6.6,8.8 1,6.4 6.3,10.9 13.7,10.9 6.2,0 10.3,-3 10.3,-6.9 0,-3.3 -4.2,-6.9 -9.2,-6.5"
         id="path3375"
         inkscape:connector-curvature="0" />
    </g>
    <g
       transform="translate(159.42465,7.000991)"
       style="fill:#eba352"
       id="g3377">
      <path
         d="m 42.8,30.5 c 0.3,1.1 -0.7,2.3 -2.2,2.7 -1.5,0.4 -2.9,-0.2 -3.2,-1.2 -0.3,-1 0.7,-2.3 2.2,-2.7 1.5,-0.4 3,0.1 3.2,1.2"
         id="path3379"
         inkscape:connector-curvature="0" />
      <path
         d="M 21.3,30.5 C 21,31.6 22,32.8 23.5,33.2 25,33.6 26.4,33 26.7,32 27,30.9 26,29.7 24.5,29.3 c -1.5,-0.4 -3,0.1 -3.2,1.2"
         id="path3381"
         inkscape:connector-curvature="0" />
    </g>
    <ellipse
       style="fill:#ffc267"
       cx="191.42465"
       cy="36.700993"
       rx="7.5"
       ry="5.1999998"
       id="ellipse3383" />
    <path
       style="fill:#ffffff"
       d="m 219.42465,24.600991 c 0,2.1 -1.2,3.9 -4,3.9 l -48,0 c -2.8,0 -4,-1.7 -4,-3.9 0,-2.1 1.2,-3.9 4,-3.9 l 48,0 c 2.8,0.1 4,1.8 4,3.9"
       id="path3385"
       inkscape:connector-curvature="0" />
    <path
       style="fill:#ff4848"
       d="m 202.22465,23.800991 c -17.5,-3.5 -33.7,-3.1 -33.7,-3.1 0,-7.2 12.7,-12.7 26.2,-12.7 14.2,0 24.5,7.5 26,20.5 1.9,15.9 -11.8,26.3 -10.2,22.8 8.1,-18.3 -1.6,-26.1 -8.3,-27.5"
       id="path3387"
       inkscape:connector-curvature="0" />
    <ellipse
       style="fill:#ffffff"
       cx="207.32465"
       cy="55.800991"
       rx="6.6999998"
       ry="6.9000001"
       id="ellipse3389" />
  </g>
  <g
     id="g4718"
     transform="translate(3.997725,2.5040747)">
    <path
       inkscape:connector-curvature="0"
       id="path3615"
       d="M 33.021484,4.4238281 C 28.592202,4.4604521 23.844136,6.0118157 21.166016,9.6074219 10.412712,12.379481 3.8097455,23.300185 2.828125,33.662109 c -3.53947782,2.378693 -4.0963671,9.603561 0.3066406,10.13086 -2.76056151,4.491893 -0.4908671,10.655857 3.7167969,13.339843 4.9811295,9.55971 16.4431565,13.681169 26.4824215,15.082032 9.46163,-0.05745 18.62218,-4.801808 25.4375,-11.080078 1.427532,-3.736239 5.08907,-5.608263 6.644532,-9.167969 1.1796,-2.753794 0.504565,-6.218305 -0.523438,-8.599609 4.814237,-0.65132 3.592176,-6.674169 0.81836,-9.029297 C 63.248559,31.34765 64.877433,26.790667 62.523438,23.486328 59.545587,16.590698 53.184255,11.605707 46.337891,9.0996094 43.371231,4.9476395 37.706295,4.3887654 33.021484,4.4238281 Z"
       style="fill:#606060;fill-opacity:1" />
    <g
       id="g3829"
       transform="translate(2,6.3795708)">
      <path
         inkscape:connector-curvature="0"
         id="path3787"
         d="m 6,28 52,0 0,12 -52,0 z"
         style="fill:#594640" />
      <path
         inkscape:connector-curvature="0"
         id="path3789"
         d="m 8,37 0,-9 48,0 0,9 c 0,0 4,0 4,5 0,5 -4,5 -4,5 C 56,55 38,62 32,62 26,62 8,55 8,47 8,47 4,47 4,42 4,37 8,37 8,37"
         style="fill:#d6a57c" />
      <path
         inkscape:connector-curvature="0"
         id="path3791"
         d="m 20,35.8 c -5,0 -7,1.8 -7,3.6 0,1.8 0,4.4 6.6,4.4 6.4,0 7.4,-0.8 7.4,-3.5 0,-1.8 -2,-4.5 -7,-4.5"
         style="fill:#f5f5f5" />
      <circle
         id="circle3793"
         r="4.5"
         cy="38.799999"
         cx="20.5"
         style="fill:#664e27" />
      <path
         inkscape:connector-curvature="0"
         id="path3795"
         d="m 22,38.8 c 0,0.8 -0.7,1.5 -1.5,1.5 -0.8,0 -1.5,-0.7 -1.5,-1.5 0,-0.8 0.7,-1.5 1.5,-1.5 0.8,0 1.5,0.7 1.5,1.5"
         style="fill:#231f20" />
      <path
         inkscape:connector-curvature="0"
         id="path3797"
         d="m 13,39.3 c 0,-7 14,-7 14,1 -2,-6 -12,-6 -14,-1"
         style="fill:#664e27" />
      <path
         inkscape:connector-curvature="0"
         id="path3799"
         d="m 44,35.8 c 5,0 7,1.8 7,3.6 0,1.8 0,4.4 -6.6,4.4 C 38,43.8 37,43 37,40.3 c 0,-1.8 2,-4.5 7,-4.5"
         style="fill:#f5f5f5" />
      <circle
         id="circle3801"
         r="4.5"
         cy="38.799999"
         cx="43.5"
         style="fill:#664e27" />
      <path
         inkscape:connector-curvature="0"
         id="path3803"
         d="m 42,38.8 c 0,0.8 0.7,1.5 1.5,1.5 0.8,0 1.5,-0.7 1.5,-1.5 0,-0.8 -0.7,-1.5 -1.5,-1.5 -0.8,0 -1.5,0.7 -1.5,1.5"
         style="fill:#231f20" />
      <g
         id="g3805"
         style="fill:#664e27">
        <path
           inkscape:connector-curvature="0"
           id="path3807"
           d="m 51,39.3 c 0,-7 -14,-7 -14,1 2,-6 12,-6 14,-1" />
        <path
           inkscape:connector-curvature="0"
           id="path3809"
           d="m 41,50.9 c 0,3.4 -4.5,5.1 -9,5.1 -4.5,0 -9,-1.7 -9,-5.1 0,0 0,-0.9 0.9,-0.9 4.1,0 12.1,0 16.2,0 0.9,0 0.9,0.9 0.9,0.9" />
      </g>
      <path
         inkscape:connector-curvature="0"
         id="path3811"
         d="M 59,31 5,31 C 5,16.6 11.8,5.5 32,5.5 52.2,5.5 59,16.6 59,31 Z"
         style="fill:#ff9430" />
      <g
         id="g3813"
         style="fill:#db802b">
        <path
           inkscape:connector-curvature="0"
           id="path3815"
           d="m 24.5,31 -4,0 0,-23.9 4,-1.2 z" />
        <path
           inkscape:connector-curvature="0"
           id="path3817"
           d="m 43.5,31 -4,0 0,-25.1 4,1.2 z" />
        <path
           inkscape:connector-curvature="0"
           id="path3819"
           d="m 62,33.2 -60,0 c 0,-5.1 13.4,-9.3 30,-9.3 16.6,0 30,4.2 30,9.3" />
      </g>
      <path
         inkscape:connector-curvature="0"
         id="path3821"
         d="m 41.5,27.7 -19,0 0,-21.1 c 0,-6.1 19.1,-6.1 19.1,0 l 0,21.1 z"
         style="fill:#ff9430" />
    </g>
  </g>
  <g
     id="g4700"
     transform="translate(15.997725,2.4188491)">
    <path
       inkscape:connector-curvature="0"
       id="path3839"
       d="M 97.277344,4.3984375 C 89.959948,4.5365636 82.463389,8.6660431 79.558594,15.462891 68.179055,20.25559 60.102066,35.788202 67.707031,46.832031 c 3.356862,3.844285 0.629159,9.567403 3.878907,13.669922 7.420534,11.809597 23.351201,12.98233 35.904262,11.334943 10.00027,-0.880186 21.02103,-8.26048 20.46878,-19.321271 -0.62613,-4.97643 4.71259,-7.791487 4.57422,-12.830078 C 133.89599,29.285289 126.58255,19.485343 117.55273,15.167969 114.47698,6.9865511 105.33869,4.087298 97.277344,4.3984375 Z"
       style="fill:#606060;fill-opacity:1" />
    <g
       id="g3686"
       transform="translate(66.722751,6.3920708)">
      <ellipse
         id="ellipse3652"
         ry="9.6000004"
         rx="15"
         cy="11.6"
         cx="32"
         style="fill:#627a82" />
      <ellipse
         id="ellipse3654"
         ry="9.6000004"
         rx="15"
         cy="15.6"
         cx="32"
         style="fill:#c28fef" />
      <path
         inkscape:connector-curvature="0"
         id="path3656"
         d="M 57.3,28.9 C 41.7,13.3 22.2,13.2 6.6,28.9 l 0.1,17.3 c 0,7.5 7.4,15.8 25.7,15.8 17.3,0 24.9,-6.8 24.9,-15.8 l 0,-17.3"
         style="fill:#d6a57c" />
      <path
         inkscape:connector-curvature="0"
         id="path3658"
         d="m 39.2,51.7 c 0.1,0.2 0.2,0.4 0.2,0.6 0,1.7 -3.4,3.8 -7.5,3.8 -4.1,0 -7.5,-2.1 -7.5,-3.8 0,-0.2 0.1,-0.5 0.2,-0.6 0,0 3.2,1.5 7.3,1.5 4.1,0 7.3,-1.5 7.3,-1.5"
         style="fill:#454749" />
      <path
         inkscape:connector-curvature="0"
         id="path3660"
         d="m 32,9.1 c -29.5,0 -35.8,23.7 -25.2,32 0,0 5.2,-8.8 16.1,-13 28.4,-10.9 20.5,-19 9.1,-19"
         style="fill:#748a93" />
      <path
         inkscape:connector-curvature="0"
         id="path3662"
         d="m 32,9.1 c -11.4,0 -19.3,8.1 9.1,19 10.9,4.2 16.1,13 16.1,13 10.6,-8.2 4.2,-32 -25.2,-32"
         style="fill:#8b9fa5" />
      <g
         id="g3664"
         style="fill:#454749">
        <path
           inkscape:connector-curvature="0"
           id="path3666"
           d="m 42.8,54.4 c -0.6,0 -1.1,-0.2 -1.6,-0.4 -0.5,-0.2 -1,-0.5 -1.4,-0.9 -0.8,-0.7 -1.6,-1.8 -1.6,-2.9 0.8,0.8 1.5,1.5 2.2,2.2 0.8,0.6 1.6,1.2 2.4,2" />
        <path
           inkscape:connector-curvature="0"
           id="path3668"
           d="m 21,54.4 c 0.8,-0.8 1.7,-1.3 2.4,-2 0.8,-0.7 1.5,-1.3 2.2,-2.2 0,1.2 -0.7,2.2 -1.6,2.9 -0.4,0.4 -0.9,0.7 -1.4,0.9 -0.4,0.2 -1,0.4 -1.6,0.4" />
        <path
           inkscape:connector-curvature="0"
           id="path3670"
           d="m 17.7,41 -0.3,-3 c 0.8,-0.1 1.9,-0.3 3.1,-0.5 5.9,-1.1 15.7,-3 26.4,0.6 l -1,2.8 C 36,37.5 26.7,39.3 21.1,40.4 19.7,40.7 18.6,40.9 17.7,41" />
        <circle
           id="ellipse3672"
           cy="39.599998"
           cx="19.700001"
           r="9" />
      </g>
      <circle
         id="ellipse3674"
         cy="39.599998"
         cx="19.700001"
         r="6"
         style="fill:#b4d7ee" />
      <circle
         id="ellipse3676"
         cy="39.599998"
         cx="44.299999"
         r="9"
         style="fill:#454749" />
      <circle
         id="ellipse3678"
         cy="39.599998"
         cx="44.299999"
         r="6"
         style="fill:#b4d7ee" />
    </g>
  </g>
  <g
     id="g4659"
     transform="translate(41.997725,2.4039775)">
    <path
       inkscape:connector-curvature="0"
       id="path3837"
       d="m 227.76953,4.3769531 c -9.95038,-0.3938166 -19.68641,4.7105618 -25.27539,12.8242189 -9.04191,6.413246 -8.72772,18.66564 -8.23242,28.478516 -0.59464,3.406953 0.9847,7.087468 3.85351,8.847656 3.24064,13.357383 18.74639,18.551269 31.11524,17.90039 12.24231,0.423931 25.95552,-6.180695 29.48242,-18.486328 5.44737,-3.888644 2.01824,-11.296266 3.45899,-16.75 C 262.48426,29.134683 259.2298,20.713856 252.5,16.050781 247.21334,7.918881 237.1835,4.1302835 227.76953,4.3769531 Z"
       style="fill:#606060;fill-opacity:1" />
    <g
       id="g3436"
       transform="translate(196.09037,6.3920708)">
      <path
         inkscape:connector-curvature="0"
         id="path3406"
         d="m 32.1,8.9 c 0,0 -0.1,0 0,0 -0.1,0 -0.1,0 -0.2,0 C 6.9,8.9 2,17.7 2,31.5 l 0.9,9.4 58.3,0 0.9,-9.4 C 62,17.7 57.1,8.9 32.1,8.9"
         style="fill:#748a93" />
      <path
         inkscape:connector-curvature="0"
         id="path3408"
         d="M 58.5,36.8 C 49.4,33.2 56.5,23.3 56.8,21.3 56.8,21.3 54.7,2 32,2 9.3,2 7.2,21.3 7.2,21.3 c 0.3,2 7.5,11.9 -1.7,15.5 0,0 -3.4,-0.4 -3.4,3.7 0,4.9 3.5,4.1 3.5,4.1 0,7.5 7.4,17.4 26.4,17.4 19,0 26.4,-9.9 26.4,-17.4 0,0 3.5,0.8 3.5,-4.1 0,-4.1 -3.4,-3.7 -3.4,-3.7"
         style="fill:#fed0ac" />
      <g
         id="g3410"
         style="fill:#748a93">
        <path
           inkscape:connector-curvature="0"
           id="path3412"
           d="m 40.7,52.9 c 0.2,0 0.3,-0.9 0.3,-1.3 0,-2.6 -4,-4.8 -9,-4.8 -5,0 -9,2.3 -9,4.9 0,0.3 0.1,1.2 0.2,1.2 0,0 17.5,0 17.5,0" />
        <path
           inkscape:connector-curvature="0"
           id="path3414"
           d="m 17.6,9.8 c 2.3,-0.7 4.7,-1.5 7.1,-2 2.4,-0.5 4.9,-0.9 7.3,-1 2.5,-0.1 5,0.1 7.4,0.6 2.4,0.5 4.8,1.3 7,2.4 C 44,9.4 41.6,9 39.2,8.9 36.8,8.7 34.4,8.7 32.1,8.8 29.7,8.9 27.3,9.1 24.9,9.3 22.5,9.5 20.1,9.8 17.6,9.8" />
        <path
           inkscape:connector-curvature="0"
           id="path3416"
           d="m 14.5,14 c 2.9,-0.7 5.7,-1.5 8.6,-2 2.9,-0.5 5.9,-0.9 8.9,-1 3,-0.1 6,0.1 8.9,0.6 3,0.5 5.9,1.2 8.6,2.4 -2.9,-0.4 -5.8,-0.7 -8.8,-0.9 -2.9,-0.2 -5.8,-0.2 -8.7,-0.1 -2.9,0.1 -5.8,0.3 -8.7,0.5 -2.9,0.2 -5.8,0.6 -8.8,0.5" />
      </g>
      <g
         id="g3418"
         style="fill:#454749">
        <path
           inkscape:connector-curvature="0"
           id="path3420"
           d="m 17.8,39.3 -0.3,-3 c 0.8,-0.1 1.9,-0.3 3.1,-0.5 5.9,-1.1 15.7,-3 26.4,0.6 l -1,2.8 C 36.1,35.8 26.8,37.6 21.2,38.7 19.8,39 18.6,39.2 17.8,39.3" />
        <circle
           id="ellipse3422"
           cy="37.900002"
           cx="19.700001"
           r="9" />
      </g>
      <circle
         id="ellipse3424"
         cy="37.900002"
         cx="19.700001"
         r="6"
         style="fill:#b4d7ee" />
      <circle
         id="ellipse3426"
         cy="37.900002"
         cx="44.299999"
         r="9"
         style="fill:#454749" />
      <circle
         id="ellipse3428"
         cy="37.900002"
         cx="44.299999"
         r="6"
         style="fill:#b4d7ee" />
    </g>
  </g>
</svg>
