<?xml version="1.0" encoding="UTF-8" standalone="no"?>
<svg
   xmlns:dc="http://purl.org/dc/elements/1.1/"
   xmlns:cc="http://creativecommons.org/ns#"
   xmlns:rdf="http://www.w3.org/1999/02/22-rdf-syntax-ns#"
   xmlns:svg="http://www.w3.org/2000/svg"
   xmlns="http://www.w3.org/2000/svg"
   xmlns:sodipodi="http://sodipodi.sourceforge.net/DTD/sodipodi-0.dtd"
   xmlns:inkscape="http://www.inkscape.org/namespaces/inkscape"
   viewBox="0 0 64 64"
   enable-background="new 0 0 64 64"
   id="svg2"
   version="1.1"
   inkscape:version="0.91 r13725"
   sodipodi:docname="tv.svg">
  <metadata
     id="metadata34">
    <rdf:RDF>
      <cc:Work
         rdf:about="">
        <dc:format>image/svg+xml</dc:format>
        <dc:type
           rdf:resource="http://purl.org/dc/dcmitype/StillImage" />
        <dc:title></dc:title>
      </cc:Work>
    </rdf:RDF>
  </metadata>
  <defs
     id="defs32" />
  <sodipodi:namedview
     pagecolor="#ffffff"
     bordercolor="#666666"
     borderopacity="1"
     objecttolerance="10"
     gridtolerance="10"
     guidetolerance="10"
     inkscape:pageopacity="0"
     inkscape:pageshadow="2"
     inkscape:window-width="1618"
     inkscape:window-height="1027"
     id="namedview30"
     showgrid="false"
     fit-margin-left="4"
     fit-margin-top="4"
     fit-margin-right="4"
     fit-margin-bottom="4"
     inkscape:zoom="3.6875"
     inkscape:cx="53.627981"
     inkscape:cy="32.471846"
     inkscape:window-x="54"
     inkscape:window-y="-8"
     inkscape:window-maximized="1"
     inkscape:current-layer="svg2" />
  <g
     id="g4"
     fill="#3e4347">
    <path
       d="M17,62H5.8c0-2.6,2.5-4.7,5.6-4.7S17,59.4,17,62z"
       id="path6" />
    <path
       d="m58.2 62h-11.2c0-2.6 2.5-4.7 5.6-4.7s5.6 2.1 5.6 4.7"
       id="path8" />
    <path
       transform="matrix(.7074-.7068.7068.7074-.1569 22.3467)"
       d="m26.4.1h.9v22.5h-.9z"
       id="path10" />
    <circle
       cx="19"
       cy="3.4"
       r="1.4"
       id="circle12" />
    <path
       transform="matrix(.7071-.7071.7071.7071 2.8286 29.5528)"
       d="m25.8 10.9h22.5v.9h-22.5z"
       id="path14" />
    <circle
       cx="45"
       cy="3.4"
       r="1.4"
       id="circle16" />
    <ellipse
       cx="32"
       cy="15.1"
       rx="8"
       ry="4.7"
       id="ellipse18" />
  </g>
  <path
     d="m59.1 57.1c-5.2 6.6-47.5 6.4-53.7 0-4.6-4.7-4.6-32.5 0-37.2 6.2-6.4 48.5-6.6 53.7 0 3.9 5 3.9 32.3 0 37.2"
     id="path20"
     fill="#c28fef" />
  <g
     id="g22"
     fill="#3e4347">
    <path
       d="m49.5 52.7c-3.9 5-35.6 4.9-40.3 0-3.4-3.6-3.4-24.7 0-28.2 4.7-4.9 36.4-5 40.3 0 2.9 3.7 2.9 24.5 0 28.2"
       id="path24" />
    <circle
       cx="56.4"
       cy="29.2"
       r="2.8"
       id="circle26" />
    <circle
       cx="56.4"
       cy="37.6"
       r="2.8"
       id="circle28" />
  </g>
</svg>
